<?xml version="1.0" encoding="UTF-8" standalone="no"?>
<!-- Created with Inkscape (http://www.inkscape.org/) -->

<svg
   width="64"
   height="64"
   viewBox="0 0 16.933333 16.933333"
   version="1.1"
   id="svg1"
   inkscape:version="1.4 (1:1.4+202410161351+e7c3feb100)"
   sodipodi:docname="cal_i.svg"
   xmlns:inkscape="http://www.inkscape.org/namespaces/inkscape"
   xmlns:sodipodi="http://sodipodi.sourceforge.net/DTD/sodipodi-0.dtd"
   xmlns="http://www.w3.org/2000/svg"
   xmlns:svg="http://www.w3.org/2000/svg">
  <sodipodi:namedview
     id="namedview1"
     pagecolor="#505050"
     bordercolor="#eeeeee"
     borderopacity="1"
     inkscape:showpageshadow="0"
     inkscape:pageopacity="0"
     inkscape:pagecheckerboard="0"
     inkscape:deskcolor="#505050"
     inkscape:document-units="mm"
     inkscape:zoom="0.5096119"
     inkscape:cx="486.64484"
     inkscape:cy="681.89146"
     inkscape:window-width="1920"
     inkscape:window-height="1011"
     inkscape:window-x="0"
     inkscape:window-y="0"
     inkscape:window-maximized="1"
     inkscape:current-layer="layer1" />
  <defs
     id="defs1" />
  <g
     inkscape:label="Camada 1"
     inkscape:groupmode="layer"
     id="layer1">
    <g
       id="g1"
       transform="matrix(0.90137269,0,0,0.90137269,0.83504493,0.83504435)">
      <path
         style="fill:#ffffff;stroke:#000000;stroke-width:1.85208;stroke-dasharray:none;stroke-opacity:1"
         d="m 2.5120146,16.480001 c -0.171765,-0.0609 -0.438995,-0.23376 -0.593852,-0.38415 -0.154849,-0.15039 -0.349902,-0.42797 -0.433447,-0.61682 -0.113925,-0.25756 -0.161003,-0.56473 -0.188358,-1.22897 l -0.03647,-0.88559 h 0.641891 0.641891 l 0.0296,0.79912 c 0.02822,0.76352 0.03889,0.80715 0.238653,0.97897 l 0.209074,0.17984 6.114355,-0.002 c 4.6876844,-0.002 6.1422364,-0.0238 6.2338444,-0.0941 0.06574,-0.0505 0.1589,-0.16576 0.207085,-0.25622 0.06388,-0.11994 0.0876,-1.42049 0.0876,-4.80113 V 5.5321914 l -6.5327304,0.0192 -6.532738,0.0192 v 0.96021 0.96023 l -0.66488,-8e-5 -0.664896,-7e-5 0.02482,-2.20269 0.02482,-2.20268 0.225917,-0.41418 c 0.151954,-0.27857 0.342624,-0.49217 0.582394,-0.65242 0.196055,-0.13102 0.528127,-0.27505 0.737929,-0.32004 0.209802,-0.045 0.663481,-0.0818 1.008176,-0.0818 h 0.626713 l 0.03364,0.81619 c 0.02571,0.62301 0.06962,0.88591 0.185665,1.11075 0.08362,0.16201 0.263009,0.36999 0.398637,0.46217 0.135636,0.0922 0.361424,0.18914 0.501759,0.21547 0.140334,0.0264 0.374483,0.0255 0.520332,-0.002 0.145849,-0.0273 0.384794,-0.15477 0.530982,-0.28312 0.146197,-0.12837 0.314905,-0.32834 0.374921,-0.44438 0.07593,-0.1469 0.109113,-0.46378 0.109113,-1.0431 v -0.8321 h 1.957937 1.9579364 v 0.81071 c 0,0.6458 0.02838,0.86369 0.139712,1.07121 0.07682,0.14328 0.259216,0.35724 0.405284,0.47546 0.151218,0.12239 0.395337,0.23235 0.566908,0.25537 0.165733,0.0222 0.421771,5.6e-4 0.568979,-0.048 0.147207,-0.0486 0.35874,-0.15999 0.470069,-0.24756 0.111338,-0.0876 0.265208,-0.29745 0.341929,-0.46637 0.106648,-0.23483 0.139882,-0.49132 0.141151,-1.08936 l 0.0016,-0.78221 0.894509,0.0369 c 0.720941,0.0297 0.961996,0.0695 1.242333,0.20522 0.191309,0.0926 0.467773,0.30851 0.614382,0.47979 0.146601,0.17127 0.316935,0.48471 0.378511,0.69653 0.09567,0.32911 0.10896,1.24451 0.09135,6.2921 l -0.02062,5.9069396 -0.192377,0.37376 c -0.105806,0.20556 -0.335395,0.48285 -0.510209,0.61618 -0.174813,0.13333 -0.444056,0.27747 -0.598331,0.32032 -0.183627,0.051 -2.439067,0.076 -6.5308294,0.0724 -5.297417,-0.005 -6.29795,-0.0224 -6.562641,-0.11623 z m 1.59242,-2.61666 c -0.131698,-0.0962 -0.153717,-0.2139 -0.175929,-0.94068 l -0.02539,-0.83074 -1.769756,-0.0226 -1.76975699,-0.0226 -0.181622,-0.21129 c -0.175574,-0.20426 -0.1816140015,-0.25138 -0.1816140015,-1.4154 0,-1.1780296 0.004000001,-1.2081196 0.1848320015,-1.3889496 l 0.18484,-0.18483 h 1.77310499 1.773096 v -0.78056 c 0,-0.67563 0.02094,-0.80722 0.15607,-0.97896 0.08585,-0.10914 0.223532,-0.19843 0.305978,-0.19843 0.09057,0 0.900541,0.68822 2.046601,1.73898 1.043188,0.95643 1.906258,1.7644896 1.917926,1.7956696 0.01164,0.0312 -0.828866,0.83287 -1.867849,1.78154 -1.040075,0.94967 -1.963419,1.73475 -2.054525,1.74688 -0.09101,0.0121 -0.233211,-0.0275 -0.316005,-0.0879 z m 1.32211,-10.4349796 c -0.08054,-0.0805 -0.167972,-0.26134 -0.194325,-0.40183 -0.02636,-0.14048 -0.03671,-0.72146 -0.02304,-1.29109 0.02474,-1.02826999 0.02636,-1.03696999 0.236178,-1.21722999 0.116206,-0.0999 0.306488,-0.18156 0.422847,-0.18156 0.116359,0 0.300852,0.0703 0.409982,0.15608 l 0.198416,0.15608 v 1.30689999 1.30691 l -0.198416,0.15608 c -0.111451,0.0877 -0.309488,0.15608 -0.451836,0.15608 -0.150579,0 -0.312819,-0.0594 -0.399817,-0.14642 z m 6.5062894,-0.0384 c -0.181153,-0.18115 -0.184841,-0.20937 -0.184841,-1.41404 0,-0.9712 0.02369,-1.26308999 0.113044,-1.39060999 0.06218,-0.0888 0.216918,-0.18421 0.343853,-0.21209 0.128165,-0.0281 0.324698,-0.0118 0.441971,0.0368 0.11614,0.0481 0.249456,0.1715 0.296242,0.27419 0.05151,0.11311 0.08507,0.64679999 0.08507,1.35381999 0,1.13875 -0.0049,1.17161 -0.18484,1.35196 -0.127615,0.12762 -0.268556,0.18484 -0.455256,0.18484 -0.1867,0 -0.327633,-0.0572 -0.455247,-0.18484 z"
         id="path8857-5" />
      <path
         style="fill:#ffffff;stroke:#000000;stroke-width:0.264583;stroke-dasharray:none;stroke-opacity:1"
         d="m 2.5116593,16.480001 c -0.171765,-0.0609 -0.438995,-0.23376 -0.593852,-0.38415 -0.154849,-0.15039 -0.349902,-0.42797 -0.433447,-0.61682 -0.113925,-0.25756 -0.161003,-0.56473 -0.188358,-1.22897 l -0.03647,-0.88559 h 0.641891 0.641891 l 0.0296,0.79912 c 0.02822,0.76352 0.03889,0.80715 0.238653,0.97897 l 0.209074,0.17984 6.114355,-0.002 c 4.6876837,-0.002 6.1422357,-0.0238 6.2338437,-0.0941 0.06574,-0.0505 0.1589,-0.16576 0.207085,-0.25622 0.06388,-0.11994 0.0876,-1.42049 0.0876,-4.80113 V 5.5321915 l -6.5327297,0.0192 -6.532738,0.0192 v 0.96021 0.96023 l -0.66488,-8e-5 -0.664896,-7e-5 0.02482,-2.20269 0.02482,-2.20268 0.225917,-0.41418 c 0.151954,-0.27857 0.342624,-0.49217 0.582394,-0.65242 0.196055,-0.13102 0.528127,-0.27505 0.737929,-0.32004 0.209802,-0.045 0.663481,-0.0818 1.008176,-0.0818 h 0.626713 l 0.03364,0.81619 c 0.02571,0.62301 0.06962,0.88591 0.185665,1.11075 0.08362,0.16201 0.263009,0.36999 0.398637,0.46217 0.135636,0.0922 0.361424,0.18914 0.501759,0.21547 0.140334,0.0264 0.374483,0.0255 0.520332,-0.002 0.145849,-0.0273 0.384794,-0.15477 0.530982,-0.28312 0.146197,-0.12837 0.314905,-0.32834 0.374921,-0.44438 0.07593,-0.1469 0.109113,-0.46378 0.109113,-1.0431 v -0.8321 h 1.957937 1.9579357 v 0.81071 c 0,0.6458 0.02838,0.86369 0.139712,1.07121 0.07682,0.14328 0.259216,0.35724 0.405284,0.47546 0.151218,0.12239 0.395337,0.23235 0.566908,0.25537 0.165733,0.0222 0.421771,5.6e-4 0.568979,-0.048 0.147207,-0.0486 0.35874,-0.15999 0.470069,-0.24756 0.111338,-0.0876 0.265208,-0.29745 0.341929,-0.46637 0.106648,-0.23483 0.139882,-0.49132 0.141151,-1.08936 l 0.0016,-0.78221 0.894509,0.0369 c 0.720941,0.0297 0.961996,0.0695 1.242333,0.20522 0.191309,0.0926 0.467773,0.30851 0.614382,0.47979 0.146601,0.17127 0.316935,0.48471 0.378511,0.69653 0.09567,0.32911 0.10896,1.24451 0.09135,6.2921 l -0.02062,5.9069395 -0.192377,0.37376 c -0.105806,0.20556 -0.335395,0.48285 -0.510209,0.61618 -0.174813,0.13333 -0.444056,0.27747 -0.598331,0.32032 -0.183627,0.051 -2.439067,0.076 -6.5308287,0.0724 -5.297417,-0.005 -6.29795,-0.0224 -6.562641,-0.11623 z m 1.59242,-2.61666 c -0.131698,-0.0962 -0.153717,-0.2139 -0.175929,-0.94068 l -0.02539,-0.83074 -1.769756,-0.0226 -1.76975703,-0.0226 -0.181622,-0.21129 c -0.175574,-0.20426 -0.181613998739,-0.25138 -0.181613998739,-1.4154 0,-1.1780295 0.0039999987,-1.2081195 0.184831998739,-1.3889495 l 0.18484,-0.18483 h 1.77310503 1.773096 v -0.78056 c 0,-0.67563 0.02094,-0.80722 0.15607,-0.97896 0.08585,-0.10914 0.223532,-0.19843 0.305978,-0.19843 0.09057,0 0.900541,0.68822 2.046601,1.73898 1.043188,0.95643 1.906258,1.7644895 1.917926,1.7956695 0.01164,0.0312 -0.828866,0.83287 -1.867849,1.78154 -1.040075,0.94967 -1.963419,1.73475 -2.054525,1.74688 -0.09101,0.0121 -0.233211,-0.0275 -0.316005,-0.0879 z m 1.32211,-10.4349795 c -0.08054,-0.0805 -0.167972,-0.26134 -0.194325,-0.40183 -0.02636,-0.14048 -0.03671,-0.72146 -0.02304,-1.29109 0.02474,-1.02826995 0.02636,-1.03696995 0.236178,-1.21722995 0.116206,-0.0999 0.306488,-0.18156 0.422847,-0.18156 0.116359,0 0.300852,0.0703 0.409982,0.15608 l 0.198416,0.15608 v 1.30689995 1.30691 l -0.198416,0.15608 c -0.111451,0.0877 -0.309488,0.15608 -0.451836,0.15608 -0.150579,0 -0.312819,-0.0594 -0.399817,-0.14642 z m 6.5062887,-0.0384 c -0.181153,-0.18115 -0.184841,-0.20937 -0.184841,-1.41404 0,-0.9712 0.02369,-1.26308995 0.113044,-1.39060995 0.06218,-0.0888 0.216918,-0.18421 0.343853,-0.21209 0.128165,-0.0281 0.324698,-0.0118 0.441971,0.0368 0.11614,0.0481 0.249456,0.1715 0.296242,0.27419 0.05151,0.11311 0.08507,0.64679995 0.08507,1.35381995 0,1.13875 -0.0049,1.17161 -0.18484,1.35196 -0.127615,0.12762 -0.268556,0.18484 -0.455256,0.18484 -0.1867,0 -0.327633,-0.0572 -0.455247,-0.18484 z"
         id="path8857" />
    </g>
  </g>
</svg>
