<?xml version="1.0" encoding="UTF-8" standalone="no"?>
<!-- Created with Inkscape (http://www.inkscape.org/) -->

<svg
   width="64"
   height="64"
   viewBox="0 0 16.933333 16.933333"
   version="1.1"
   id="svg1"
   inkscape:version="1.4 (1:1.4+202410161351+e7c3feb100)"
   sodipodi:docname="cal_f.svg"
   xmlns:inkscape="http://www.inkscape.org/namespaces/inkscape"
   xmlns:sodipodi="http://sodipodi.sourceforge.net/DTD/sodipodi-0.dtd"
   xmlns="http://www.w3.org/2000/svg"
   xmlns:svg="http://www.w3.org/2000/svg">
  <sodipodi:namedview
     id="namedview1"
     pagecolor="#505050"
     bordercolor="#eeeeee"
     borderopacity="1"
     inkscape:showpageshadow="0"
     inkscape:pageopacity="0"
     inkscape:pagecheckerboard="0"
     inkscape:deskcolor="#505050"
     inkscape:document-units="mm"
     inkscape:zoom="0.72070006"
     inkscape:cx="396.83638"
     inkscape:cy="450.25666"
     inkscape:window-width="1920"
     inkscape:window-height="1011"
     inkscape:window-x="0"
     inkscape:window-y="0"
     inkscape:window-maximized="1"
     inkscape:current-layer="layer1" />
  <defs
     id="defs1" />
  <g
     inkscape:label="Camada 1"
     inkscape:groupmode="layer"
     id="layer1">
    <g
       id="g1"
       transform="matrix(0.9016264,0,0,0.9016264,0.83289629,-0.0653834)">
      <path
         style="fill:#000000;stroke:#000000;stroke-width:1.85208;stroke-dasharray:none;stroke-opacity:1"
         d="m 1.227776,16.563401 c -0.161849,-0.0577 -0.41815396,-0.205168 -0.56957396,-0.327714 -0.151419,-0.122562 -0.360953,-0.389256 -0.465618,-0.592661 L 0.00226903,15.273202 V 9.1160982 2.9589992 l 0.16650101,-0.311151 c 0.09157,-0.171133 0.294254,-0.423321 0.450398,-0.560423 0.156153,-0.137101 0.40608396,-0.300976 0.55539796,-0.364166 0.16562,-0.07009 0.619666,-0.129712 1.164357,-0.1529 l 0.892864,-0.03801 v 0.772759 c 0,0.523508 0.0377,0.862986 0.116882,1.052496 0.06431,0.153854 0.175421,0.344467 0.246961,0.423582 0.07157,0.07912 0.256957,0.208597 0.412017,0.287739 0.155059,0.07914 0.411527,0.143839 0.569916,0.143773 0.158389,-6.4e-5 0.405235,-0.0599 0.548543,-0.13298 0.143307,-0.07307 0.365572,-0.264146 0.493929,-0.424602 0.226729,-0.283445 0.234091,-0.317484 0.258729,-1.196823 l 0.02538,-0.905082 H 7.873487 9.84283 v 0.848195 c 0,0.766358 0.0182,0.8793 0.188895,1.170528 0.129507,0.220984 0.298383,0.375332 0.537126,0.490902 0.259251,0.125501 0.434623,0.158834 0.686365,0.130462 0.185974,-0.02097 0.468949,-0.12468 0.628823,-0.230483 0.159883,-0.105802 0.353364,-0.32365 0.429963,-0.484106 0.0985,-0.206335 0.14933,-0.530875 0.173618,-1.108619 l 0.03436,-0.816879 h 0.632405 c 0.347814,0 0.801689,0.03631 1.008603,0.08068 0.206915,0.04438 0.530458,0.178502 0.718978,0.298058 0.19486,0.123575 0.427808,0.362488 0.539843,0.553656 0.108386,0.184952 0.231667,0.523427 0.273949,0.752163 0.04276,0.231404 0.06782,1.265011 0.05656,2.330099 l -0.02032,1.914215 -0.62302,-0.573344 c -0.612647,-0.563792 -0.623419,-0.579967 -0.645919,-0.969737 l -0.02285,-0.39638 -6.59202,-0.01942 -6.59202,-0.01942 v 4.6787158 c 0,3.41133 0.02391,4.723686 0.0884,4.844706 0.04864,0.09129 0.142655,0.207633 0.208963,0.258549 0.09244,0.071 1.560199,0.09313 6.290422,0.09499 l 6.169842,0.0024 0.192004,-0.170982 c 0.105596,-0.09403 0.203413,-0.266082 0.217369,-0.382335 0.01722,-0.143585 0.218405,-0.405538 0.627337,-0.816877 0.331076,-0.333035 0.633107,-0.605515 0.67117,-0.605515 0.03974,0 0.05354,0.379993 0.0324,0.893631 -0.0275,0.66758 -0.07516,0.979934 -0.188478,1.234819 -0.08342,0.187646 -0.283253,0.468426 -0.444082,0.623942 -0.160829,0.155525 -0.445844,0.335051 -0.633376,0.398944 -0.295494,0.10069 -1.182654,0.115731 -6.653489,0.112842 -5.16882,-0.0024 -6.365845,-0.02236 -6.606791,-0.108223 z m 11.400401,-2.687006 c -0.100487,-0.111031 -0.125761,-0.30195 -0.125761,-0.949853 v -0.810903 h -1.71352 c -1.355251,0 -1.75847,-0.02326 -1.928505,-0.111169 -0.118237,-0.06113 -0.236221,-0.166526 -0.262189,-0.234189 -0.02595,-0.06765 -0.04717,-0.677886 -0.04717,-1.356083 0,-0.9442628 0.02522,-1.2676188 0.107734,-1.3805758 0.100127,-0.13708 0.23835,-0.150187 1.956709,-0.185499 l 1.848977,-0.03803 0.03803,-0.861256 c 0.03256,-0.7387 0.059,-0.876555 0.1855,-0.968848 0.08112,-0.05917 0.203095,-0.107603 0.271027,-0.107603 0.0679,0 1.00436,0.807823 2.080937,1.795167 1.076568,0.987344 1.929166,1.8200788 1.894645,1.8505188 -0.03452,0.03044 -0.909921,0.82978 -1.945341,1.776303 -1.322175,1.208663 -1.935075,1.720946 -2.058911,1.720946 -0.09699,0 -0.232923,-0.06251 -0.302096,-0.138958 z M 4.102208,3.3423982 c -0.182904,-0.182901 -0.18652,-0.210746 -0.18652,-1.43537 0,-1.11638898 0.01543,-1.26787698 0.145266,-1.42824198 0.115185,-0.142251 0.218838,-0.179391 0.500638,-0.179391 0.2818,0 0.385453,0.03714 0.500646,0.179391 0.12985,0.160365 0.145258,0.311853 0.145258,1.42824198 0,1.224624 -0.0033,1.252469 -0.186512,1.43537 -0.128781,0.128773 -0.270995,0.186515 -0.459392,0.186515 -0.188389,0 -0.330611,-0.05774 -0.459384,-0.186515 z m 6.624721,0.02902 -0.200222,-0.157492 V 1.8951542 0.57638222 l 0.200222,-0.157493 c 0.110125,-0.08662 0.296286,-0.157493 0.413699,-0.157493 0.117412,0 0.309425,0.08244 0.42669,0.183209 0.211681,0.181899 0.213386,0.190673 0.238326,1.22827998 0.01379,0.574788 0.0033,1.161053 -0.02326,1.302809 -0.0266,0.141761 -0.114841,0.324223 -0.196092,0.405478 -0.08779,0.08779 -0.251507,0.147739 -0.403457,0.147739 -0.143633,0 -0.343464,-0.06903 -0.455931,-0.157493 z"
         id="path8863" />
      <path
         style="fill:#f9f9f9;stroke-width:0.0759886"
         d="m 1.2255064,16.563404 c -0.161849,-0.0577 -0.41815395,-0.205168 -0.56957395,-0.327714 -0.151419,-0.122562 -0.360953,-0.389256 -0.465618,-0.592661 L -5.538831e-7,15.273205 V 9.1161017 2.9590027 L 0.16650045,2.6478517 c 0.09157,-0.171133 0.294254,-0.423321 0.450398,-0.560423 0.156153,-0.137101 0.40608395,-0.300976 0.55539795,-0.364166 0.16562,-0.07009 0.619666,-0.129712 1.164357,-0.1529 l 0.892864,-0.03801 v 0.772759 c 0,0.523508 0.0377,0.862986 0.116882,1.052496 0.06431,0.153854 0.175421,0.344467 0.246961,0.423582 0.07157,0.07912 0.256957,0.208597 0.412017,0.287739 0.155059,0.07914 0.411527,0.143839 0.569916,0.143773 0.158389,-6.4e-5 0.405235,-0.0599 0.548543,-0.13298 0.143307,-0.07307 0.365572,-0.264146 0.493929,-0.424602 0.226729,-0.283445 0.234091,-0.317484 0.258729,-1.196823 l 0.02538,-0.905082 h 1.969343 1.969343 v 0.848195 c 0,0.766358 0.0182,0.8793 0.1888946,1.170528 0.129507,0.220984 0.298383,0.375332 0.537126,0.490902 0.259251,0.125501 0.434623,0.158834 0.686365,0.130462 0.185974,-0.02097 0.468949,-0.12468 0.628823,-0.230483 0.159883,-0.105802 0.353364,-0.32365 0.429963,-0.484106 0.0985,-0.206335 0.14933,-0.530875 0.173618,-1.108619 l 0.03436,-0.816879 h 0.632405 c 0.347814,0 0.801689,0.03631 1.008603,0.08068 0.206915,0.04438 0.530458,0.178502 0.718978,0.298058 0.19486,0.123575 0.427808,0.362488 0.539843,0.553656 0.108386,0.184952 0.231667,0.523427 0.273949,0.752163 0.04276,0.231404 0.06782,1.265011 0.05656,2.330099 l -0.02032,1.914215 -0.62302,-0.573344 c -0.612647,-0.563792 -0.623419,-0.579967 -0.645919,-0.969737 l -0.02285,-0.39638 -6.5920196,-0.01942 -6.59202,-0.01942 V 10.1825 c 0,3.41133 0.02391,4.723686 0.0884,4.844706 0.04864,0.09129 0.142655,0.207633 0.208963,0.258549 0.09244,0.071 1.560199,0.09313 6.290422,0.09499 l 6.1698416,0.0024 0.192004,-0.170982 c 0.105596,-0.09403 0.203413,-0.266082 0.217369,-0.382335 0.01722,-0.143585 0.218405,-0.405538 0.627337,-0.816877 0.331076,-0.333035 0.633107,-0.605515 0.67117,-0.605515 0.03974,0 0.05354,0.379993 0.0324,0.893631 -0.0275,0.66758 -0.07516,0.979934 -0.188478,1.234819 -0.08342,0.187646 -0.283253,0.468426 -0.444082,0.623942 -0.160829,0.155525 -0.445844,0.335051 -0.633376,0.398944 -0.295494,0.10069 -1.182654,0.115731 -6.6534886,0.112842 -5.16882,-0.0024 -6.365845,-0.02236 -6.606791,-0.108223 z M 12.625907,13.876398 c -0.100487,-0.111031 -0.125761,-0.30195 -0.125761,-0.949853 v -0.810903 h -1.71352 c -1.3552506,0 -1.7584696,-0.02326 -1.9285046,-0.111169 -0.118237,-0.06113 -0.236221,-0.166526 -0.262189,-0.234189 -0.02595,-0.06765 -0.04717,-0.677886 -0.04717,-1.356083 0,-0.9442623 0.02522,-1.2676183 0.107734,-1.3805753 0.100127,-0.13708 0.23835,-0.150187 1.9567086,-0.185499 l 1.848977,-0.03803 0.03803,-0.861256 c 0.03256,-0.7387 0.059,-0.876555 0.1855,-0.968848 0.08112,-0.05917 0.203095,-0.107603 0.271027,-0.107603 0.0679,0 1.00436,0.807823 2.080937,1.795167 1.076568,0.987344 1.929166,1.8200783 1.894645,1.8505183 -0.03452,0.03044 -0.909921,0.82978 -1.945341,1.776303 -1.322175,1.208663 -1.935075,1.720946 -2.058911,1.720946 -0.09699,0 -0.232923,-0.06251 -0.302096,-0.138958 z M 4.0999384,3.3424017 c -0.182904,-0.182901 -0.18652,-0.210746 -0.18652,-1.43537 0,-1.11638902 0.01543,-1.26787702 0.145266,-1.42824202 0.115185,-0.142251 0.218838,-0.179391 0.500638,-0.179391 0.2818,0 0.385453,0.03714 0.500646,0.179391 0.12985,0.160365 0.145258,0.311853 0.145258,1.42824202 0,1.224624 -0.0033,1.252469 -0.186512,1.43537 -0.128781,0.128773 -0.270995,0.186515 -0.459392,0.186515 -0.188389,0 -0.330611,-0.05774 -0.459384,-0.186515 z m 6.6247206,0.02902 -0.200222,-0.157492 V 1.8951577 0.57638568 l 0.200222,-0.157493 c 0.110125,-0.08662 0.296286,-0.157493 0.413699,-0.157493 0.117412,0 0.309425,0.08244 0.42669,0.183209 0.211681,0.181899 0.213386,0.190673 0.238326,1.22828002 0.01379,0.574788 0.0033,1.161053 -0.02326,1.302809 -0.0266,0.141761 -0.114841,0.324223 -0.196092,0.405478 -0.08779,0.08779 -0.251507,0.147739 -0.403457,0.147739 -0.143633,0 -0.343464,-0.06903 -0.455931,-0.157493 z"
         id="path8863-5" />
    </g>
  </g>
</svg>
