<?xml version="1.0" encoding="UTF-8" standalone="no"?>
<!-- Created with Inkscape (http://www.inkscape.org/) -->

<svg
   width="64"
   height="64"
   viewBox="0 0 16.933333 16.933333"
   version="1.1"
   id="svg1"
   inkscape:version="1.4 (1:1.4+202410161351+e7c3feb100)"
   sodipodi:docname="grau.svg"
   xmlns:inkscape="http://www.inkscape.org/namespaces/inkscape"
   xmlns:sodipodi="http://sodipodi.sourceforge.net/DTD/sodipodi-0.dtd"
   xmlns="http://www.w3.org/2000/svg"
   xmlns:svg="http://www.w3.org/2000/svg">
  <sodipodi:namedview
     id="namedview1"
     pagecolor="#505050"
     bordercolor="#eeeeee"
     borderopacity="1"
     inkscape:showpageshadow="0"
     inkscape:pageopacity="0"
     inkscape:pagecheckerboard="0"
     inkscape:deskcolor="#505050"
     inkscape:document-units="mm"
     inkscape:zoom="0.72070006"
     inkscape:cx="396.83638"
     inkscape:cy="561.25984"
     inkscape:window-width="1920"
     inkscape:window-height="1011"
     inkscape:window-x="0"
     inkscape:window-y="0"
     inkscape:window-maximized="1"
     inkscape:current-layer="layer1" />
  <defs
     id="defs1" />
  <g
     inkscape:label="Camada 1"
     inkscape:groupmode="layer"
     id="layer1">
    <path
       style="fill:#d45500;fill-opacity:1;stroke-width:0.0211948"
       d="m 8.1378535,15.08942 c -0.08162,-0.01543 -0.203241,-0.04744 -0.270313,-0.07117 -0.06706,-0.02372 -0.18852,-0.0781 -0.26989,-0.120848 -0.08137,-0.04279 -0.212232,-0.131732 -0.290797,-0.197726 -0.07855,-0.06597 -0.19312,-0.181711 -0.254555,-0.257186 -0.06144,-0.07551 -0.15455,-0.223053 -0.206905,-0.327962 -0.05235,-0.104918 -0.11565,-0.267054 -0.140676,-0.360313 -0.03548,-0.13229 -0.04551,-0.230138 -0.04551,-0.44509 0,-0.215068 0.01002,-0.312745 0.04551,-0.445089 0.02504,-0.09324 0.07901,-0.240247 0.119931,-0.326645 0.04093,-0.0864 0.116192,-0.215603 0.167228,-0.287132 0.05104,-0.07155 0.155816,-0.18899 0.232813,-0.261031 0.077,-0.07202 0.194741,-0.165733 0.261633,-0.208207 0.06689,-0.04248 0.125824,-0.08109 0.130987,-0.08579 0.0051,-0.0047 0.197086,-1.131388 0.426538,-2.5037276 0.229452,-1.372348 0.422904,-2.480857 0.429893,-2.463371 0.0069,0.01748 0.194191,1.123845 0.416011,2.458595 0.221818,1.3347506 0.407666,2.4458896 0.412993,2.4692076 0.0054,0.02333 0.06358,0.07458 0.129457,0.113856 0.06588,0.0393 0.186527,0.134461 0.268114,0.211417 0.08158,0.07698 0.189944,0.198246 0.240801,0.269519 0.05086,0.07124 0.1259465,0.200269 0.1668985,0.286667 0.04093,0.0864 0.09493,0.233386 0.119986,0.326637 0.03575,0.133104 0.04546,0.22882 0.04509,0.44509 -3.23e-4,0.212595 -0.01071,0.314264 -0.04551,0.445089 -0.02482,0.09327 -0.0879,0.255403 -0.140261,0.360321 -0.05235,0.104917 -0.1454635,0.252495 -0.2069065,0.327962 -0.06144,0.07551 -0.176361,0.191517 -0.255373,0.257875 -0.07903,0.06636 -0.217067,0.158416 -0.306771,0.204557 -0.0897,0.04612 -0.225097,0.103832 -0.300868,0.12822 -0.07576,0.02442 -0.19976,0.05411 -0.275533,0.06605 -0.07576,0.01194 -0.2093,0.02093 -0.296726,0.02 -0.08742,-7.75e-4 -0.225725,-0.01442 -0.307325,-0.02977 z M 0.67024145,13.611154 c -0.03617,-0.0845 -0.09353,-0.225192 -0.127451,-0.312621 -0.0339,-0.08741 -0.101127,-0.280573 -0.149348,-0.429205 -0.0482,-0.148632 -0.120541,-0.404174 -0.160741,-0.567861 -0.0402,-0.163695 -0.09712,-0.442664 -0.126516,-0.61994 -0.02937,-0.177276 -0.06509,-0.432004 -0.07933,-0.56607 C 0.01264545,10.981407 5.2545011e-4,10.614203 1.5450113e-5,10.299458 -4.4754989e-4,9.9631314 0.01072545,9.6179664 0.02721545,9.4622564 c 0.01544,-0.145709 0.05148,-0.407112 0.07996,-0.580876 0.02847,-0.173772 0.08568,-0.455137 0.127153,-0.62525 0.04143,-0.170129 0.122749,-0.45164 0.180654,-0.625599 0.05791,-0.173962 0.148534,-0.421942 0.20137,-0.551063 0.05284,-0.129131 0.156529,-0.358758 0.230436,-0.510299 0.07389,-0.151551 0.19543705,-0.380447 0.27008505,-0.508675 0.07465,-0.128223 0.188463,-0.314213 0.252916,-0.413299 0.06444,-0.09909 0.203886,-0.296311 0.309861,-0.43828 0.105977,-0.141962 0.292053,-0.370873 0.413511,-0.508675 0.121463,-0.137799 0.334221,-0.36047 0.47281,-0.494817 0.138578,-0.134348 0.337814,-0.316121 0.44273,-0.4039379 0.104919,-0.087822 0.267209,-0.2174526 0.360654,-0.2880809 0.09346,-0.07063 0.293737,-0.2098273 0.44509,-0.309334 0.15136,-0.099514 0.399178,-0.2501945 0.550719,-0.3348612 0.151551,-0.084664 0.363658,-0.1949155 0.47137,-0.244999 0.10771,-0.050087 0.336611,-0.1473708 0.508674,-0.2162083 0.172067,-0.068824 0.422519,-0.1592843 0.556578,-0.2010242 0.134048,-0.04173 0.334348,-0.099243 0.445089,-0.1278167 0.110746,-0.028559 0.296729,-0.071521 0.413299,-0.095449 0.116571,-0.023931 0.345475,-0.062606 0.508677,-0.085952 0.163204,-0.023342 0.454095,-0.053815 0.646436,-0.0677 0.213197,-0.015434 0.5152,-0.020117 0.773611,-0.012194 0.233144,0.00729 0.519274,0.023171 0.635845,0.035319 0.116571,0.012194 0.359781,0.046273 0.540463,0.075816 0.1806865,0.029536 0.4794135,0.09129 0.6638405,0.1372085 0.184423,0.045916 0.47853,0.1317866 0.653573,0.190782 0.175042,0.058986 0.434273,0.1564051 0.576058,0.2164603 0.141787,0.060064 0.391329,0.1773932 0.554525,0.2607591 0.163205,0.083364 0.385601,0.2055538 0.494215,0.2715269 0.108618,0.065971 0.285064,0.1786166 0.392106,0.2503178 0.107033,0.071715 0.270918,0.1877934 0.364173,0.2579814 0.09327,0.07018 0.255396,0.1994637 0.360311,0.2872808 0.10492,0.087821 0.304143,0.2695894 0.442732,0.4039384 0.138596,0.134347 0.351538,0.357229 0.473225,0.495293 0.121693,0.138059 0.314625,0.376505 0.428751,0.529869 0.114133,0.153371 0.274097,0.383759 0.355484,0.511987 0.08139,0.128223 0.211713,0.349316 0.289609,0.491304 0.0779,0.141995 0.197979,0.382112 0.266853,0.533612 0.06888,0.151499 0.173297,0.404527 0.232071,0.562284 0.05876,0.15776 0.139983,0.399278 0.180483,0.536724 0.04051,0.13743 0.09777,0.352653 0.127248,0.478261 0.02947,0.125608 0.07708,0.368816 0.105787,0.540464 0.02868,0.171656 0.06456,0.431322 0.07972,0.57704 0.01526,0.147267 0.02743,0.514394 0.02736,0.8265956 -1.01e-4,0.31166 -0.01233,0.674879 -0.02754,0.816007 -0.01509,0.13988 -0.05097,0.397407 -0.07984,0.572264 -0.02887,0.174858 -0.0863,0.456214 -0.127654,0.62525 -0.04135,0.169028 -0.118306,0.439756 -0.171026,0.601621 -0.05271,0.161858 -0.14718,0.418392 -0.209905,0.57007 -0.06273,0.151671 -0.117398,0.27914 -0.12153,0.283256 -0.0042,0.0039 -0.154535,-0.06783 -0.334242,-0.159841 -0.179714,-0.09203 -0.41975,-0.207843 -0.533405,-0.257356 -0.113658,-0.04954 -0.206617,-0.1006 -0.206577,-0.113507 4.3e-5,-0.01287 0.02971,-0.095 0.06597,-0.182432 0.03626,-0.08744 0.108171,-0.282946 0.159858,-0.434492 0.05168,-0.151539 0.122086,-0.38681 0.15644,-0.522806 0.03437,-0.135996 0.0814,-0.345823 0.1045,-0.466284 0.0231,-0.12046 0.0584,-0.352552 0.0784,-0.51575 0.0255,-0.207952 0.0364,-0.455261 0.0364,-0.826597 0,-0.3692736 -0.01098,-0.6178536 -0.03585,-0.8201306 -0.01971,-0.159656 -0.05543,-0.393321 -0.07933,-0.519278 -0.02388,-0.125965 -0.07582,-0.35301 -0.115365,-0.504549 -0.03954,-0.151539 -0.110027,-0.385817 -0.156631,-0.520611 -0.04659,-0.134795 -0.129009,-0.348768 -0.183144,-0.475517 -0.05414,-0.126746 -0.139532,-0.312131 -0.189764,-0.411964 -0.05023,-0.09984 -0.140123,-0.265846 -0.199745,-0.368914 -0.05963,-0.103063 -0.143816,-0.241364 -0.187103,-0.307323 -0.04329,-0.06597 -0.139983,-0.205767 -0.214909,-0.310681 -0.07493,-0.10492 -0.203273,-0.271823 -0.28523,-0.370908 -0.08196,-0.09909 -0.273692,-0.30736 -0.426075,-0.462832 -0.152384,-0.155471 -0.381975,-0.371234 -0.510202,-0.47947 -0.128223,-0.108226 -0.33519,-0.269193 -0.459914,-0.357679 -0.124729,-0.08847 -0.344092,-0.23153 -0.487481,-0.317874 -0.143362,-0.08634 -0.347135,-0.2003531 -0.4528,-0.2533569 C 11.633972,3.744004 11.443818,3.6563466 11.317076,3.6022024 11.19033,3.5480614 10.976342,3.4656529 10.841551,3.4190594 10.70677,3.3724689 10.472489,3.3019865 10.320948,3.2624281 10.169415,3.2228691 9.9423615,3.1709481 9.8164015,3.1470621 c -0.125947,-0.0239 -0.359628,-0.059637 -0.519272,-0.079421 -0.201121,-0.024947 -0.452976,-0.036164 -0.820126,-0.036544 -0.302262,-3.201e-4 -0.63457,0.011248 -0.773611,0.027179 -0.134048,0.015256 -0.372494,0.051242 -0.529865,0.080004 -0.157378,0.028737 -0.381508,0.07639 -0.498079,0.105882 -0.116571,0.029497 -0.350247,0.099419 -0.519274,0.1553833 -0.169031,0.055955 -0.421774,0.1510646 -0.561663,0.211343 -0.13988,0.060281 -0.360751,0.1654426 -0.490815,0.2337282 -0.130065,0.068274 -0.33989,0.1888628 -0.466282,0.2679628 -0.126395,0.0791 -0.296571,0.191615 -0.37817,0.250035 -0.08159,0.05842 -0.238973,0.178091 -0.349715,0.265936 -0.110745,0.08784 -0.34309,0.2981 -0.516332,0.467239 -0.173244,0.169135 -0.398266,0.407668 -0.500051,0.530066 -0.101776,0.122397 -0.246456,0.308386 -0.321488,0.413299 -0.07503,0.104919 -0.17184,0.24472 -0.215117,0.310679 -0.04329,0.06597 -0.127478,0.204256 -0.187111,0.307325 -0.05964,0.103064 -0.155402,0.280849 -0.212814,0.395069 -0.05742,0.114214 -0.15129,0.321772 -0.208617,0.461228 -0.05733,0.139465 -0.142133,0.370277 -0.188476,0.512948 -0.04633,0.14267 -0.108184,0.354769 -0.137417,0.471346 -0.02924,0.116569 -0.07289,0.315001 -0.09698,0.440958 -0.02408,0.125965 -0.05994,0.359638 -0.07965,0.519278 -0.02495,0.201913 -0.0359,0.45154 -0.03599,0.8201306 -7.9e-5,0.370476 0.01071,0.619281 0.03612,0.827062 0.0199,0.163446 0.05545,0.396437 0.07897,0.517735 0.02352,0.121283 0.06666,0.316606 0.09587,0.434028 0.0292,0.117429 0.09691,0.346397 0.150424,0.50882 0.05351,0.162423 0.133358,0.381794 0.177434,0.487479 0.04406,0.105677 0.07865,0.193152 0.07685,0.194369 -0.0019,0.0016 -0.117737,0.05217 -0.257625,0.113267 -0.139881,0.06109 -0.380446,0.17692 -0.534579,0.257426 -0.15413405,0.08051 -0.28398705,0.14636 -0.28856505,0.14636 -0.0047,0 -0.03792,-0.06915 -0.07409,-0.153663 z M 2.1205395,12.357251 c -0.100191,-0.307869 -0.182157,-0.564046 -0.182157,-0.569271 0,-0.0054 0.188153,-0.07047 0.418118,-0.144958 0.229969,-0.0745 0.742618,-0.241402 1.139221,-0.370878 0.396603,-0.129469 0.728562,-0.228844 0.737675,-0.220805 0.0091,0.008 0.0937,0.252271 0.187946,0.542744 0.09426,0.290473 0.17566,0.54303 0.180903,0.561233 0.0073,0.02543 -0.03146,0.04582 -0.166742,0.08791 -0.09695,0.03016 -0.606764,0.194067 -1.132908,0.364297 -0.526138,0.170229 -0.966354,0.309505 -0.978254,0.309505 -0.01192,0 -0.103605,-0.251899 -0.203795,-0.559768 z m 12.1320045,0.453517 c -0.169031,-0.05628 -0.664983,-0.218425 -1.102126,-0.360266 -0.437141,-0.141841 -0.801522,-0.264248 -0.809736,-0.271992 -0.0081,-0.0078 0.06554,-0.260294 0.163898,-0.561202 0.09836,-0.300915 0.183579,-0.554798 0.189386,-0.564194 0.006,-0.0094 0.304018,0.07792 0.6627,0.194045 0.358676,0.116127 0.870867,0.281984 1.138203,0.368591 0.267333,0.0866 0.489708,0.161105 0.494161,0.16554 0.0047,0.0047 -0.07471,0.261821 -0.175905,0.571915 -0.143261,0.439004 -0.19167,0.563387 -0.218629,0.561868 -0.01903,-7.75e-4 -0.172915,-0.04799 -0.341954,-0.104305 z M 3.0793645,9.1798534 c -0.613943,-0.200222 -1.121924,-0.3697 -1.128849,-0.37663 -0.0069,-0.007 0.06958,-0.264442 0.170019,-0.572256 0.100448,-0.307823 0.185538,-0.562807 0.189118,-0.566644 0.0036,-0.0039 0.512546,0.15757 1.131035,0.358653 0.618488,0.201091 1.133947,0.371445 1.145457,0.378561 0.01247,0.0078 -0.053,0.241317 -0.162405,0.579218 -0.100842,0.311458 -0.193415,0.565574 -0.205728,0.564713 -0.01233,-7.75e-4 -0.524709,-0.165392 -1.138652,-0.365615 z m 9.4361525,-0.178578 c -0.09694,-0.300179 -0.180447,-0.556868 -0.185548,-0.570435 -0.0061,-0.01597 0.237342,-0.104793 0.686422,-0.250728 0.382629,-0.124344 0.899748,-0.292287 1.149153,-0.373204 0.249408,-0.08092 0.455849,-0.144539 0.458759,-0.141368 0.0027,0.0031 0.08754,0.257844 0.188079,0.565954 0.10053,0.308117 0.175448,0.566829 0.166483,0.574923 -0.0091,0.0081 -0.121205,0.04868 -0.24944,0.09017 -0.128223,0.04147 -0.576496,0.18661 -0.996152,0.322482 -0.419655,0.135872 -0.819428,0.265255 -0.888385,0.287512 -0.06895,0.02225 -0.13161,0.04047 -0.139238,0.04047 -0.0076,0 -0.09317,-0.245596 -0.190138,-0.545767 z m -1.516368,-2.11705 c -0.244799,-0.179663 -0.463103,-0.338817 -0.485121,-0.353672 -0.03715,-0.02506 0.0103,-0.09601 0.652734,-0.979753 0.381027,-0.52401 0.705545,-0.96155 0.721157,-0.972312 0.0204,-0.01405 0.158469,0.07438 0.49178,0.315108 0.25487,0.184072 0.471378,0.342015 0.481129,0.350985 0.0098,0.0091 -0.289418,0.439431 -0.664828,0.956577 -0.375408,0.517149 -0.698134,0.955898 -0.717163,0.975 -0.03202,0.03215 -0.06758,0.01057 -0.479688,-0.291933 z M 4.7717765,6.2427744 c -0.380218,-0.523402 -0.694007,-0.961553 -0.697313,-0.97367 -0.0033,-0.01219 0.21106,-0.179762 0.476361,-0.372548 l 0.482368,-0.350517 0.144094,0.195566 c 0.07926,0.107562 0.399814,0.546846 0.712363,0.976187 0.312545,0.429343 0.559978,0.788243 0.549846,0.797558 -0.01002,0.0093 -0.224907,0.165909 -0.477272,0.348 -0.25237,0.182085 -0.46792,0.331066 -0.479004,0.331066 -0.01111,0 -0.331234,-0.428239 -0.711449,-0.951642 z m 3.094401,-0.206684 c -0.008,-0.008 -0.01439,-0.55174 -0.01439,-1.208426 v -1.193972 h 0.614828 0.614819 l -0.0054,1.202804 -0.0054,1.202804 -0.594897,0.0056 c -0.327194,0.0031 -0.6014,-8.52e-4 -0.609351,-0.0088 z"
       id="path5616" />
  </g>
</svg>
