<svg width="134" height="26" viewBox="0 0 134 26" fill="none" xmlns="http://www.w3.org/2000/svg">
                <path d="M25.5301 0.231934H0V25.762H25.5301V0.231934Z" fill="#E3E3E3"/>
                <path d="M16.4842 9.90723L12.7681 15.0803L9.04892 9.90723L1.61362 20.2534H9.04892L12.7681 15.0803L16.4842 20.2534H23.9195L16.4842 9.90723Z" fill="#E30613"/>
                <path d="M9.04892 20.2536L12.765 15.0806L16.4842 20.2536H9.04892Z" fill="#E4ADB5"/>
                <path d="M12.765 4.73486L9.04892 9.90793L12.765 15.081L16.4842 9.90793L12.765 4.73486Z" fill="#AE0F0A"/>
                <path d="M42.0332 11.5928V5.89652L39.5109 9.78807V9.80374H37.9442V9.78807L35.4031 5.86519V11.5928H32.5988V0.237793H34.6856L38.7275 6.29758L42.7538 0.237793H44.8563V11.5928H42.0332Z" fill="white"/>
                <path d="M50.2298 0.237793H47.4067V11.5928H50.2298V0.237793Z" fill="white"/>
                <path d="M61.046 11.5928L55.6034 5.36386V11.5928H52.7803V0.237793H54.9329L60.413 6.63284V0.237793H63.233V11.5928H61.046Z" fill="white"/>
                <path d="M67.3157 11.5931H64.3077L69.1079 0.234863H71.8527L76.6341 11.5899H73.6449L72.8773 9.63474H68.0677L67.3157 11.5899V11.5931ZM69.0045 7.23464H71.9436L70.4741 3.45902L69.0045 7.23464Z" fill="white"/>
                <path d="M86.4914 3.76935H83.6526C83.5022 2.9171 82.9696 2.3343 81.8165 2.3343C80.8483 2.3343 80.1966 2.73537 80.1966 3.46856C80.1966 4.08581 80.6478 4.35528 81.4969 4.53701L83.0824 4.90674C85.1535 5.35793 86.5071 6.19139 86.5071 8.14656C86.5071 10.4182 84.6365 11.8376 81.7977 11.8376C79.2441 11.8376 76.938 10.6344 76.6717 7.8301H79.4948C79.6796 8.83275 80.5475 9.43435 81.8823 9.43435C82.9351 9.43435 83.4866 9.05208 83.4866 8.43169C83.4866 8.0463 83.2516 7.64837 82.2834 7.4635L80.4128 7.04678C78.1756 6.56425 77.1229 5.51146 77.1229 3.70669C77.1229 1.43505 78.959 0 81.6317 0C83.4678 0 86.2063 0.717524 86.4914 3.77562" fill="white"/>
                <path d="M42.0833 25.7649L41.9642 24.3956C41.1464 25.3983 39.962 25.9999 38.3734 25.9999C34.8172 25.9999 32.3293 23.4619 32.3293 20.2033C32.3293 16.6626 34.9331 14.1748 38.4079 14.1748C41.1809 14.1748 43.5841 15.7446 44.0698 18.4518H41.1151C40.6137 17.1326 39.4795 16.766 38.458 16.766C36.5217 16.766 35.1837 18.1353 35.1837 20.1406C35.1837 21.9266 36.4715 23.3804 38.4894 23.3804C39.8085 23.3804 40.8111 22.7287 41.3626 21.6446L38.1071 21.6101V19.3886H44.1857V25.768H42.0833V25.7649Z" fill="white"/>
                <path d="M46.2568 14.4097V25.7647H54.842V23.3114H49.0799V21.3405H54.1057V18.9341H49.0799V16.8662H54.842V14.4097H46.2568Z" fill="white"/>
                <path d="M59.7332 25.7647H56.9101V14.4097H61.8857C64.6932 14.4097 66.5794 15.945 66.5794 18.4015C66.5794 19.9869 65.7616 21.2402 64.408 21.9264L67.0024 25.7679H63.5965L61.4878 22.4779H59.7332V25.7679V25.7647ZM63.7751 18.3984C63.7751 17.4803 62.9072 16.8975 61.8199 16.8975H59.7332V19.9368H61.8199C62.9041 19.9368 63.7751 19.3352 63.7751 18.3984Z" fill="white"/>
                <path d="M94.6788 17.9317H91.84C91.6896 17.0794 91.1538 16.4966 90.0039 16.4966C89.0357 16.4966 88.384 16.8977 88.384 17.6309C88.384 18.2481 88.8352 18.5145 89.6874 18.6993L91.2729 19.0659C93.344 19.5171 94.6976 20.3537 94.6976 22.3057C94.6976 24.5774 92.827 25.9968 89.9882 25.9968C87.4346 25.9968 85.1285 24.7936 84.8622 21.9893H87.6853C87.8701 22.9919 88.738 23.5935 90.0728 23.5935C91.1256 23.5935 91.6771 23.2113 91.6771 22.5909C91.6771 22.2086 91.4421 21.8075 90.4739 21.6227L88.6033 21.206C86.3661 20.7203 85.3133 19.6675 85.3133 17.8659C85.3133 15.5942 87.1495 14.1592 89.819 14.1592C91.6551 14.1592 94.3936 14.8767 94.6788 17.9317Z" fill="white"/>
                <path d="M83.3362 14.4097H80.5131V25.7647H83.3362V14.4097Z" fill="white"/>
                <path d="M73.5447 17.6338L75.0142 21.4094H72.0752L73.5447 17.6338ZM72.1817 14.4097L67.3846 25.7647H70.3895L71.1415 23.8095H75.9511L76.7187 25.7647H79.7079L74.9296 14.4097H72.1817Z" fill="white"/>
                <path d="M100.341 3.28328C100.341 2.97309 100.41 2.69422 100.554 2.44669C100.695 2.19916 100.889 2.00803 101.14 1.87017C101.387 1.7323 101.666 1.6665 101.973 1.6665C102.224 1.6665 102.456 1.71037 102.672 1.80124C102.885 1.88897 103.067 2.02057 103.214 2.19603C103.361 2.37149 103.455 2.57829 103.499 2.81329H102.7C102.669 2.72869 102.628 2.65349 102.575 2.59396C102.521 2.53129 102.462 2.48429 102.399 2.45296C102.333 2.41849 102.268 2.39656 102.202 2.38089C102.136 2.36523 102.067 2.35896 101.992 2.35896C101.729 2.35896 101.516 2.44356 101.353 2.60963C101.19 2.77882 101.108 2.99502 101.108 3.26762C101.108 3.51201 101.19 3.71881 101.353 3.88488C101.516 4.05407 101.729 4.13554 101.992 4.13554C102.167 4.13554 102.321 4.09481 102.452 4.01334C102.584 3.93187 102.691 3.81908 102.766 3.66868L101.892 3.65928V3.06395H103.524V4.77786H102.96L102.929 4.41127C102.694 4.69953 102.374 4.84366 101.964 4.84366C101.65 4.84366 101.371 4.77473 101.121 4.63687C100.873 4.499 100.679 4.311 100.544 4.07601C100.406 3.83788 100.341 3.57781 100.341 3.28642" fill="#E3E3E3"/>
                <path d="M105.714 2.62863C105.551 2.80096 105.473 3.01089 105.473 3.25215C105.473 3.49342 105.551 3.70335 105.714 3.87568C105.874 4.04801 106.078 4.13261 106.319 4.13261C106.56 4.13261 106.764 4.04801 106.924 3.87568C107.083 3.70335 107.165 3.49655 107.165 3.25215C107.165 3.00776 107.083 2.80096 106.924 2.62863C106.761 2.4563 106.56 2.36857 106.319 2.36857C106.078 2.36857 105.874 2.4563 105.714 2.62863ZM104.915 4.05428C104.774 3.80988 104.705 3.54355 104.705 3.25215C104.705 2.96076 104.774 2.69129 104.915 2.45003C105.056 2.20563 105.25 2.0145 105.495 1.8735C105.742 1.73251 106.018 1.66357 106.319 1.66357C106.545 1.66357 106.758 1.70431 106.958 1.78891C107.159 1.87037 107.328 1.98317 107.472 2.1273C107.616 2.2683 107.726 2.4375 107.81 2.6349C107.892 2.82916 107.936 3.03909 107.936 3.25842C107.936 3.47775 107.895 3.68455 107.81 3.87881C107.729 4.07308 107.616 4.24227 107.472 4.38327C107.328 4.52427 107.159 4.63707 106.958 4.71854C106.758 4.8 106.545 4.84387 106.319 4.84387C106.018 4.84387 105.742 4.77493 105.495 4.63394C105.247 4.49294 105.053 4.30181 104.915 4.06054" fill="#E3E3E3"/>
                <path d="M108.744 1.72656H109.581L110.452 3.79454L111.323 1.72656H112.156L110.837 4.79406H110.069L108.744 1.72656Z" fill="#E3E3E3"/>
                <path d="M113.325 4.77839V1.72656H115.631V2.38455H114.083V2.94228H115.437V3.58774H114.083V4.11727H115.631V4.77839H113.325Z" fill="#E3E3E3"/>
                <path d="M117.733 3.21174H118.294C118.445 3.21174 118.567 3.17414 118.667 3.09895C118.767 3.02375 118.818 2.92348 118.818 2.80128C118.818 2.67908 118.767 2.58195 118.667 2.50989C118.57 2.43782 118.445 2.40022 118.294 2.40022H117.733V3.21488V3.21174ZM116.975 4.77839V1.72656H118.307C118.689 1.72656 118.996 1.82369 119.225 2.01796C119.457 2.21222 119.573 2.47229 119.573 2.80128C119.573 2.99868 119.529 3.17728 119.438 3.33394C119.347 3.49061 119.222 3.61907 119.056 3.71307L119.773 4.78152H118.89L118.307 3.89793H117.733V4.78152H116.975V4.77839Z" fill="#E3E3E3"/>
                <path d="M120.886 4.77839V1.72656H121.465L122.938 3.44674V1.72656H123.696V4.77839H123.11L121.644 3.10521V4.77839H120.886Z" fill="#E3E3E3"/>
                <path d="M125.871 2.62863C125.711 2.80096 125.629 3.01089 125.629 3.25215C125.629 3.49342 125.711 3.70335 125.871 3.87568C126.034 4.04801 126.234 4.13261 126.475 4.13261C126.717 4.13261 126.92 4.04801 127.08 3.87568C127.243 3.70335 127.321 3.49655 127.321 3.25215C127.321 3.00776 127.24 2.80096 127.08 2.62863C126.917 2.4563 126.717 2.36857 126.475 2.36857C126.234 2.36857 126.03 2.4563 125.871 2.62863ZM125.072 4.05428C124.931 3.80988 124.862 3.54355 124.862 3.25215C124.862 2.96076 124.931 2.69129 125.072 2.45003C125.213 2.20563 125.407 2.0145 125.651 1.8735C125.899 1.73251 126.175 1.66357 126.475 1.66357C126.701 1.66357 126.914 1.70431 127.115 1.78891C127.315 1.87037 127.487 1.98317 127.628 2.1273C127.773 2.2683 127.882 2.4375 127.967 2.6349C128.048 2.82916 128.089 3.03909 128.089 3.25842C128.089 3.47775 128.048 3.68455 127.967 3.87881C127.882 4.07308 127.773 4.24227 127.628 4.38327C127.484 4.52427 127.315 4.63707 127.115 4.71854C126.914 4.8 126.701 4.84387 126.475 4.84387C126.175 4.84387 125.899 4.77493 125.651 4.63394C125.404 4.49294 125.21 4.30181 125.072 4.06054" fill="#E3E3E3"/>
                <path d="M100.413 17.772V14.7202H102.719V15.3782H101.171V15.9359H102.525V16.5814H101.171V17.1109H102.719V17.772H100.413Z" fill="#E3E3E3"/>
                <path d="M103.859 16.7471H104.621C104.646 16.8849 104.715 16.9914 104.827 17.0698C104.94 17.1512 105.081 17.1888 105.26 17.1888C105.395 17.1888 105.501 17.1638 105.576 17.1136C105.652 17.0635 105.692 16.9977 105.692 16.91C105.692 16.7721 105.586 16.6813 105.37 16.6437L104.868 16.5371C104.567 16.4745 104.342 16.3679 104.201 16.2269C104.057 16.0828 103.985 15.8917 103.985 15.6504C103.985 15.3465 104.094 15.1052 104.317 14.9235C104.539 14.7417 104.831 14.6509 105.191 14.6509C105.297 14.6509 105.404 14.6603 105.51 14.6759C105.614 14.6916 105.724 14.7229 105.839 14.7731C105.955 14.8201 106.056 14.8796 106.143 14.9517C106.231 15.0237 106.309 15.1209 106.372 15.2431C106.438 15.3653 106.476 15.5031 106.491 15.6629H105.736C105.689 15.3903 105.52 15.2556 105.235 15.2556C105.097 15.2556 104.99 15.2838 104.909 15.3402C104.827 15.3966 104.79 15.4718 104.79 15.5689C104.79 15.6535 104.818 15.7193 104.881 15.7632C104.94 15.8102 105.034 15.8447 105.163 15.8697L105.586 15.9669C105.883 16.0295 106.112 16.1298 106.266 16.2645C106.419 16.3961 106.497 16.5873 106.497 16.8348C106.497 17.1387 106.382 17.3831 106.153 17.5617C105.924 17.7403 105.62 17.8312 105.238 17.8312C105.062 17.8312 104.896 17.8092 104.743 17.7654C104.586 17.7215 104.448 17.6557 104.32 17.5711C104.191 17.4834 104.088 17.3737 104.007 17.2296C103.925 17.0886 103.875 16.9256 103.859 16.7439" fill="#E3E3E3"/>
                <path d="M107.416 15.4033V14.7202H110.11V15.4033H109.142V17.7689H108.384V15.4033H107.416Z" fill="#E3E3E3"/>
                <path d="M111.956 16.597H112.745L112.347 15.585L111.953 16.597H111.956ZM110.696 17.7689L111.99 14.6982H112.717L114.011 17.7689H113.203L112.996 17.2425H111.702L111.501 17.7689H110.696Z" fill="#E3E3E3"/>
                <path d="M115.982 17.0861H116.449C116.696 17.0861 116.906 17.0046 117.072 16.8417C117.238 16.6787 117.323 16.4782 117.323 16.2338C117.323 15.9894 117.238 15.7983 117.072 15.6416C116.906 15.4818 116.696 15.4003 116.449 15.4003H115.982V17.0861ZM115.224 17.7691V14.7173H116.446C116.681 14.7173 116.9 14.7549 117.107 14.8301C117.311 14.9053 117.486 15.0087 117.63 15.1434C117.774 15.275 117.887 15.4348 117.969 15.6228C118.05 15.8108 118.091 16.0145 118.091 16.2369C118.091 16.4594 118.05 16.6693 117.969 16.8573C117.887 17.0485 117.774 17.2114 117.63 17.3461C117.486 17.4777 117.311 17.5842 117.107 17.6594C116.903 17.7346 116.681 17.7722 116.446 17.7722H115.224V17.7691Z" fill="#E3E3E3"/>
                <path d="M120.071 15.6228C119.911 15.7951 119.83 16.005 119.83 16.2463C119.83 16.4876 119.911 16.6975 120.071 16.8698C120.234 17.0422 120.434 17.1268 120.676 17.1268C120.917 17.1268 121.121 17.0422 121.28 16.8698C121.44 16.6975 121.522 16.4907 121.522 16.2463C121.522 16.0019 121.44 15.7951 121.28 15.6228C121.117 15.4504 120.917 15.3627 120.676 15.3627C120.434 15.3627 120.231 15.4473 120.071 15.6228ZM119.272 17.0484C119.131 16.804 119.062 16.5377 119.062 16.2463C119.062 15.9549 119.131 15.6854 119.272 15.4442C119.413 15.1998 119.607 15.0086 119.852 14.8676C120.099 14.7266 120.375 14.6577 120.676 14.6577C120.901 14.6577 121.114 14.6984 121.315 14.783C121.515 14.8645 121.685 14.9773 121.829 15.1214C121.973 15.2624 122.083 15.4316 122.167 15.629C122.249 15.8233 122.292 16.0332 122.292 16.2526C122.292 16.4719 122.252 16.6787 122.167 16.873C122.086 17.0704 121.973 17.2364 121.829 17.3805C121.685 17.5215 121.515 17.6343 121.315 17.7158C121.114 17.7973 120.901 17.838 120.676 17.838C120.375 17.838 120.102 17.7691 119.852 17.6281C119.604 17.4871 119.41 17.2959 119.272 17.0516" fill="#E3E3E3"/>
                <path d="M101.021 10.7753H101.628C101.935 10.7753 102.189 10.675 102.396 10.4745C102.603 10.274 102.706 10.0296 102.706 9.73506C102.706 9.44053 102.603 9.20867 102.396 9.0144C102.189 8.82014 101.935 8.72301 101.628 8.72301H101.021V10.7753ZM100.485 11.2735V8.22168H101.625C101.932 8.22168 102.211 8.28748 102.459 8.41594C102.706 8.54754 102.901 8.72927 103.042 8.958C103.182 9.18673 103.251 9.4468 103.251 9.73193C103.251 10.0171 103.182 10.2865 103.042 10.5215C102.901 10.7565 102.706 10.9414 102.459 11.073C102.211 11.2046 101.932 11.2735 101.625 11.2735H100.485Z" fill="#E3E3E3"/>
                <path d="M104.909 8.22168H104.373V11.2735H104.909V8.22168Z" fill="#E3E3E3"/>
                <path d="M106.46 11.2735V8.22168H108.638V8.72301H106.996V9.60033H108.44V10.0985H106.996V11.2735H106.46Z" fill="#E3E3E3"/>
                <path d="M109.966 11.2735V8.22168H112.178V8.72301H110.502V9.51886H112V10.0202H110.502V10.7753H112.178V11.2735H109.966Z" fill="#E3E3E3"/>
                <path d="M114.152 9.77246H114.848C115.042 9.77246 115.202 9.72232 115.33 9.63146C115.459 9.53746 115.521 9.40899 115.521 9.24606C115.521 9.08313 115.459 8.96093 115.33 8.86693C115.202 8.77294 115.042 8.7228 114.848 8.7228H114.152V9.77246ZM113.616 11.2764V8.22461H114.87C115.218 8.22461 115.503 8.31861 115.725 8.50661C115.948 8.6946 116.06 8.94213 116.06 9.2492C116.06 9.46853 116.001 9.65966 115.888 9.82259C115.772 9.98552 115.612 10.1046 115.409 10.1829L116.239 11.2796H115.584L114.829 10.2769H114.155V11.2796H113.62L113.616 11.2764Z" fill="#E3E3E3"/>
                <path d="M117.561 11.2735V8.22168H119.773V8.72301H118.097V9.51886H119.595V10.0202H118.097V10.7753H119.773V11.2735H117.561Z" fill="#E3E3E3"/>
                <path d="M121.039 11.2735V8.22168H121.446L123.201 10.3273V8.22168H123.737V11.2735H123.314L121.575 9.2212V11.2735H121.039Z" fill="#E3E3E3"/>
                <path d="M125.156 8.72301V8.22168H127.816V8.72301H126.757V11.2735H126.222V8.72301H125.156Z" fill="#E3E3E3"/>
                <path d="M129.101 11.2735V8.22168H131.316V8.72301H129.637V9.51886H131.135V10.0202H129.637V10.7753H131.316V11.2735H129.101Z" fill="#E3E3E3"/>
                <path d="M132.667 11.0358C132.667 10.9449 132.698 10.8729 132.761 10.8133C132.823 10.7538 132.899 10.7256 132.99 10.7256C133.08 10.7256 133.156 10.7569 133.218 10.8165C133.281 10.876 133.312 10.9512 133.312 11.0389C133.312 11.1266 133.281 11.205 133.218 11.2645C133.156 11.324 133.077 11.3554 132.99 11.3554C132.902 11.3554 132.823 11.3272 132.761 11.2645C132.698 11.205 132.667 11.1298 132.667 11.0389" fill="#E3E3E3"/>
                <path d="M131.103 24.0167C131.103 23.9259 131.135 23.8538 131.197 23.7943C131.26 23.7347 131.335 23.7065 131.426 23.7065C131.517 23.7065 131.592 23.7379 131.655 23.7974C131.717 23.8569 131.749 23.9321 131.749 24.0199C131.749 24.1076 131.717 24.1859 131.655 24.2423C131.592 24.3019 131.514 24.3332 131.426 24.3332C131.338 24.3332 131.26 24.305 131.197 24.2423C131.135 24.1828 131.103 24.1076 131.103 24.0199" fill="#E3E3E3"/>
                <path d="M100.485 24.2645V21.2158H102.7V21.714H101.021V22.5099H102.518V23.0112H101.021V23.7663H102.7V24.2645H100.485Z" fill="#E3E3E3"/>
                <path d="M104.116 24.2645V21.2158H106.297V21.714H104.655V22.5913H106.1V23.0927H104.655V24.2645H104.116Z" fill="#E3E3E3"/>
                <path d="M108.149 21.2158H107.61V24.2676H108.149V21.2158Z" fill="#E3E3E3"/>
                <path d="M114.45 21.2158H113.914V24.2676H114.45V21.2158Z" fill="#E3E3E3"/>
                <path d="M115.954 24.2645V21.2158H118.169V21.714H116.49V22.5099H117.987V23.0112H116.49V23.7663H118.169V24.2645H115.954Z" fill="#E3E3E3"/>
                <path d="M119.604 24.2645V21.2158H120.011L121.766 23.3214V21.2158H122.305V24.2645H121.879L120.143 22.2122V24.2645H119.604Z" fill="#E3E3E3"/>
                <path d="M123.549 21.714V21.2158H126.209V21.714H125.15V24.2645H124.614V21.714H123.549Z" fill="#E3E3E3"/>
                <path d="M127.638 24.2645V21.2158H129.853V21.714H128.177V22.5099H129.674V23.0112H128.177V23.7663H129.853V24.2645H127.638Z" fill="#E3E3E3"/>
                <path d="M111.987 23.2521H112.567C112.479 23.5529 112.319 23.7942 112.09 23.9885C111.818 24.2141 111.489 24.33 111.103 24.33C110.928 24.33 110.759 24.3049 110.596 24.2548C110.433 24.2047 110.286 24.1295 110.154 24.0355C110.019 23.9415 109.903 23.8287 109.806 23.7002C109.706 23.5717 109.631 23.4245 109.578 23.2615C109.521 23.0986 109.496 22.9263 109.496 22.7445C109.496 22.5628 109.521 22.3905 109.578 22.2276C109.631 22.0615 109.709 21.9174 109.806 21.7889C109.907 21.6604 110.019 21.5476 110.154 21.4505C110.286 21.3565 110.433 21.2813 110.596 21.2312C110.759 21.181 110.928 21.1528 111.103 21.1528C111.489 21.1528 111.818 21.2656 112.09 21.4944C112.319 21.6855 112.479 21.9299 112.567 22.2307H111.99C111.927 22.0772 111.833 21.955 111.711 21.8578C111.548 21.7325 111.345 21.6667 111.103 21.6667C110.799 21.6667 110.549 21.767 110.348 21.9675C110.151 22.168 110.047 22.4249 110.047 22.7414C110.047 23.0579 110.148 23.3117 110.348 23.5122C110.546 23.7127 110.799 23.813 111.103 23.813C111.345 23.813 111.548 23.7472 111.711 23.6187C111.833 23.5247 111.924 23.3994 111.987 23.249" fill="#E3E3E3"/>
                </svg>